# xmcd
#
# Track frame offsets:
#	150
#	9367
#	21150
#	29847
#	38225
#	46322
#	54847
#	62677
#	71545
#	84572
#	91680
#	104875
#	114905
#	131545
#	149020
#	163807
#	176852
#	193857
#	213407
#	228472
#	242245
#	257785
#	278522
#
# Disc length: 3940 seconds
#
# Revision: 1
# Processed by: cddbd v1.5.2PL0 Copyright (c) Steve Scherf et al.
# Submitted via: audiograbber 1.83.01
#
DISCID=4e0f6217
DTITLE=Jim Nabors - Shazam - Everything Is Beautiful
DYEAR=2009
DGENRE=Oldies
TTITLE0=Hoo How, What Now 
TTITLE1=It Takes All Kinds To Make A World
TTITLE2=Hot Dog Heart
TTITLE3=Shazam 
TTITLE4=Heart Insurance
TTITLE5=Reincarnation
TTITLE6=If You Want Me To
TTITLE7=The Waltz Of Miss Sarah Green
TTITLE8=All Of This For Sally
TTITLE9=You Can't Roller Skate In A Buffalo Herd
TTITLE10=Old Blue
TTITLE11=Gomer Says Hey
TTITLE12=Mama, A Rainbow
TTITLE13=Everything Is Beautiful
TTITLE14=Hi-Lili, Hi-Lo
TTITLE15=A Tim For Us
TTITLE16=The World I Used To Know
TTITLE17=Bridge Over Troubled Water
TTITLE18=If I Never Laugh Again
TTITLE19=The Sweertheart Tree
TTITLE20=Yesterday When I Was Young
TTITLE21=I Can't Stop Loving You
TTITLE22=The Windmills Of Your Mind
EXTD=
EXTT0=
EXTT1=
EXTT2=
EXTT3=
EXTT4=
EXTT5=
EXTT6=
EXTT7=
EXTT8=
EXTT9=
EXTT10=
EXTT11=
EXTT12=
EXTT13=
EXTT14=
EXTT15=
EXTT16=
EXTT17=
EXTT18=
EXTT19=
EXTT20=
EXTT21=
EXTT22=
PLAYORDER=
